<svg width="129" height="28" viewBox="0 0 129 28" fill="none" xmlns="http://www.w3.org/2000/svg">
<path fill-rule="evenodd" clip-rule="evenodd" d="M9.89943 4.20292C7.60031 4.20292 5.39501 5.09974 3.76877 6.69663C2.14246 8.29358 1.22851 10.4599 1.22851 12.719V21.0814C1.22823 21.1019 1.23209 21.1222 1.23991 21.1411C1.24774 21.16 1.25929 21.1771 1.2738 21.1913C1.28831 21.2056 1.30549 21.2167 1.32427 21.2242C1.34304 21.2317 1.36309 21.2354 1.38326 21.2352L1.39141 21.2351L9.89943 21.2351C11.0379 21.2351 12.1652 21.0149 13.2171 20.5871C14.269 20.1593 15.2248 19.5321 16.0301 18.7414C16.8353 17.9507 17.4742 17.0119 17.9101 15.9785C18.346 14.9452 18.5703 13.8376 18.5703 12.719C18.5703 11.6004 18.346 10.4928 17.9101 9.4595C17.4742 8.42616 16.8353 7.48735 16.0301 6.69663C15.2248 5.90592 14.269 5.27878 13.2171 4.85094C12.1652 4.4231 11.0379 4.20292 9.89943 4.20292ZM9.89943 22.438H1.39481C1.21173 22.4398 1.03013 22.4058 0.860581 22.3382C0.689563 22.2699 0.534316 22.1687 0.403956 22.0407C0.273601 21.9127 0.17077 21.7605 0.101445 21.593C0.0327042 21.427 -0.00173549 21.2492 6.72849e-05 21.0701V12.719C6.72849e-05 10.1419 1.04262 7.67002 2.89892 5.84723C4.75528 4.02437 7.2734 3 9.89943 3C11.1997 3 12.4871 3.25148 13.6883 3.74004C14.8895 4.2286 15.9808 4.94465 16.8999 5.84723C17.8191 6.7498 18.5481 7.82121 19.0455 9.00026C19.5428 10.1793 19.7988 11.4429 19.7988 12.719C19.7988 13.9951 19.5428 15.2587 19.0455 16.4378C18.5481 17.6168 17.8191 18.6882 16.8999 19.5908C15.9808 20.4934 14.8895 21.2094 13.6883 21.698C12.4871 22.1866 11.1997 22.438 9.89943 22.438Z" fill="white"/>
<path fill-rule="evenodd" clip-rule="evenodd" d="M6.05566 11.5298C6.05566 11.1976 6.33066 10.9283 6.66989 10.9283H12.7254C13.0646 10.9283 13.3396 11.1976 13.3396 11.5298C13.3396 11.8619 13.0646 12.1312 12.7254 12.1312H6.66989C6.33066 12.1312 6.05566 11.8619 6.05566 11.5298Z" fill="white"/>
<path fill-rule="evenodd" clip-rule="evenodd" d="M6.05566 14.7011C6.05566 14.3689 6.33066 14.0996 6.66989 14.0996H12.7254C13.0646 14.0996 13.3396 14.3689 13.3396 14.7011C13.3396 15.0333 13.0646 15.3026 12.7254 15.3026H6.66989C6.33066 15.3026 6.05566 15.0333 6.05566 14.7011Z" fill="white"/>
<path d="M39.125 12.2734V14.1133H29.8906V12.2734H39.125ZM30.2422 4.9375V22H27.9805V4.9375H30.2422ZM41.0938 4.9375V22H38.8438V4.9375H41.0938ZM50.0469 22.2344C49.1641 22.2344 48.3633 22.0859 47.6445 21.7891C46.9336 21.4844 46.3203 21.0586 45.8047 20.5117C45.2969 19.9648 44.9062 19.3164 44.6328 18.5664C44.3594 17.8164 44.2227 16.9961 44.2227 16.1055V15.6133C44.2227 14.582 44.375 13.6641 44.6797 12.8594C44.9844 12.0469 45.3984 11.3594 45.9219 10.7969C46.4453 10.2344 47.0391 9.80859 47.7031 9.51953C48.3672 9.23047 49.0547 9.08594 49.7656 9.08594C50.6719 9.08594 51.4531 9.24219 52.1094 9.55469C52.7734 9.86719 53.3164 10.3047 53.7383 10.8672C54.1602 11.4219 54.4727 12.0781 54.6758 12.8359C54.8789 13.5859 54.9805 14.4062 54.9805 15.2969V16.2695H45.5117V14.5H52.8125V14.3359C52.7812 13.7734 52.6641 13.2266 52.4609 12.6953C52.2656 12.1641 51.9531 11.7266 51.5234 11.3828C51.0938 11.0391 50.5078 10.8672 49.7656 10.8672C49.2734 10.8672 48.8203 10.9727 48.4062 11.1836C47.9922 11.3867 47.6367 11.6914 47.3398 12.0977C47.043 12.5039 46.8125 13 46.6484 13.5859C46.4844 14.1719 46.4023 14.8477 46.4023 15.6133V16.1055C46.4023 16.707 46.4844 17.2734 46.6484 17.8047C46.8203 18.3281 47.0664 18.7891 47.3867 19.1875C47.7148 19.5859 48.1094 19.8984 48.5703 20.125C49.0391 20.3516 49.5703 20.4648 50.1641 20.4648C50.9297 20.4648 51.5781 20.3086 52.1094 19.9961C52.6406 19.6836 53.1055 19.2656 53.5039 18.7422L54.8164 19.7852C54.543 20.1992 54.1953 20.5938 53.7734 20.9688C53.3516 21.3438 52.832 21.6484 52.2148 21.8828C51.6055 22.1172 50.8828 22.2344 50.0469 22.2344ZM59.8672 4V22H57.6875V4H59.8672ZM65.5156 11.7578V26.875H63.3359V9.32031H65.3281L65.5156 11.7578ZM74.0586 15.5547V15.8008C74.0586 16.7227 73.9492 17.5781 73.7305 18.3672C73.5117 19.1484 73.1914 19.8281 72.7695 20.4062C72.3555 20.9844 71.8438 21.4336 71.2344 21.7539C70.625 22.0742 69.9258 22.2344 69.1367 22.2344C68.332 22.2344 67.6211 22.1016 67.0039 21.8359C66.3867 21.5703 65.8633 21.1836 65.4336 20.6758C65.0039 20.168 64.6602 19.5586 64.4023 18.8477C64.1523 18.1367 63.9805 17.3359 63.8867 16.4453V15.1328C63.9805 14.1953 64.1562 13.3555 64.4141 12.6133C64.6719 11.8711 65.0117 11.2383 65.4336 10.7148C65.8633 10.1836 66.3828 9.78125 66.9922 9.50781C67.6016 9.22656 68.3047 9.08594 69.1016 9.08594C69.8984 9.08594 70.6055 9.24219 71.2227 9.55469C71.8398 9.85938 72.3594 10.2969 72.7812 10.8672C73.2031 11.4375 73.5195 12.1211 73.7305 12.918C73.9492 13.707 74.0586 14.5859 74.0586 15.5547ZM71.8789 15.8008V15.5547C71.8789 14.9219 71.8125 14.3281 71.6797 13.7734C71.5469 13.2109 71.3398 12.7188 71.0586 12.2969C70.7852 11.8672 70.4336 11.5312 70.0039 11.2891C69.5742 11.0391 69.0625 10.9141 68.4688 10.9141C67.9219 10.9141 67.4453 11.0078 67.0391 11.1953C66.6406 11.3828 66.3008 11.6367 66.0195 11.957C65.7383 12.2695 65.5078 12.6289 65.3281 13.0352C65.1562 13.4336 65.0273 13.8477 64.9414 14.2773V17.3125C65.0977 17.8594 65.3164 18.375 65.5977 18.8594C65.8789 19.3359 66.2539 19.7227 66.7227 20.0195C67.1914 20.3086 67.7812 20.4531 68.4922 20.4531C69.0781 20.4531 69.582 20.332 70.0039 20.0898C70.4336 19.8398 70.7852 19.5 71.0586 19.0703C71.3398 18.6406 71.5469 18.1484 71.6797 17.5938C71.8125 17.0312 71.8789 16.4336 71.8789 15.8008Z" fill="white"/>
<path d="M81.5977 22H78.0352L78.0586 20.1602H81.5977C82.8164 20.1602 83.832 19.9062 84.6445 19.3984C85.457 18.8828 86.0664 18.1641 86.4727 17.2422C86.8867 16.3125 87.0938 15.2266 87.0938 13.9844V12.9414C87.0938 11.9648 86.9766 11.0977 86.7422 10.3398C86.5078 9.57422 86.1641 8.92969 85.7109 8.40625C85.2578 7.875 84.7031 7.47266 84.0469 7.19922C83.3984 6.92578 82.6523 6.78906 81.8086 6.78906H77.9648V4.9375H81.8086C82.9258 4.9375 83.9453 5.125 84.8672 5.5C85.7891 5.86719 86.582 6.40234 87.2461 7.10547C87.918 7.80078 88.4336 8.64453 88.793 9.63672C89.1523 10.6211 89.332 11.7305 89.332 12.9648V13.9844C89.332 15.2188 89.1523 16.332 88.793 17.3242C88.4336 18.3086 87.9141 19.1484 87.2344 19.8438C86.5625 20.5391 85.75 21.0742 84.7969 21.4492C83.8516 21.8164 82.7852 22 81.5977 22ZM79.2422 4.9375V22H76.9805V4.9375H79.2422ZM97.6641 22.2344C96.7812 22.2344 95.9805 22.0859 95.2617 21.7891C94.5508 21.4844 93.9375 21.0586 93.4219 20.5117C92.9141 19.9648 92.5234 19.3164 92.25 18.5664C91.9766 17.8164 91.8398 16.9961 91.8398 16.1055V15.6133C91.8398 14.582 91.9922 13.6641 92.2969 12.8594C92.6016 12.0469 93.0156 11.3594 93.5391 10.7969C94.0625 10.2344 94.6562 9.80859 95.3203 9.51953C95.9844 9.23047 96.6719 9.08594 97.3828 9.08594C98.2891 9.08594 99.0703 9.24219 99.7266 9.55469C100.391 9.86719 100.934 10.3047 101.355 10.8672C101.777 11.4219 102.09 12.0781 102.293 12.8359C102.496 13.5859 102.598 14.4062 102.598 15.2969V16.2695H93.1289V14.5H100.43V14.3359C100.398 13.7734 100.281 13.2266 100.078 12.6953C99.8828 12.1641 99.5703 11.7266 99.1406 11.3828C98.7109 11.0391 98.125 10.8672 97.3828 10.8672C96.8906 10.8672 96.4375 10.9727 96.0234 11.1836C95.6094 11.3867 95.2539 11.6914 94.957 12.0977C94.6602 12.5039 94.4297 13 94.2656 13.5859C94.1016 14.1719 94.0195 14.8477 94.0195 15.6133V16.1055C94.0195 16.707 94.1016 17.2734 94.2656 17.8047C94.4375 18.3281 94.6836 18.7891 95.0039 19.1875C95.332 19.5859 95.7266 19.8984 96.1875 20.125C96.6562 20.3516 97.1875 20.4648 97.7812 20.4648C98.5469 20.4648 99.1953 20.3086 99.7266 19.9961C100.258 19.6836 100.723 19.2656 101.121 18.7422L102.434 19.7852C102.16 20.1992 101.812 20.5938 101.391 20.9688C100.969 21.3438 100.449 21.6484 99.832 21.8828C99.2227 22.1172 98.5 22.2344 97.6641 22.2344ZM112.512 18.6367C112.512 18.3242 112.441 18.0352 112.301 17.7695C112.168 17.4961 111.891 17.25 111.469 17.0312C111.055 16.8047 110.43 16.6094 109.594 16.4453C108.891 16.2969 108.254 16.1211 107.684 15.918C107.121 15.7148 106.641 15.4688 106.242 15.1797C105.852 14.8906 105.551 14.5508 105.34 14.1602C105.129 13.7695 105.023 13.3125 105.023 12.7891C105.023 12.2891 105.133 11.8164 105.352 11.3711C105.578 10.9258 105.895 10.5312 106.301 10.1875C106.715 9.84375 107.211 9.57422 107.789 9.37891C108.367 9.18359 109.012 9.08594 109.723 9.08594C110.738 9.08594 111.605 9.26562 112.324 9.625C113.043 9.98438 113.594 10.4648 113.977 11.0664C114.359 11.6602 114.551 12.3203 114.551 13.0469H112.383C112.383 12.6953 112.277 12.3555 112.066 12.0273C111.863 11.6914 111.562 11.4141 111.164 11.1953C110.773 10.9766 110.293 10.8672 109.723 10.8672C109.121 10.8672 108.633 10.9609 108.258 11.1484C107.891 11.3281 107.621 11.5586 107.449 11.8398C107.285 12.1211 107.203 12.418 107.203 12.7305C107.203 12.9648 107.242 13.1758 107.32 13.3633C107.406 13.543 107.555 13.7109 107.766 13.8672C107.977 14.0156 108.273 14.1562 108.656 14.2891C109.039 14.4219 109.527 14.5547 110.121 14.6875C111.16 14.9219 112.016 15.2031 112.688 15.5312C113.359 15.8594 113.859 16.2617 114.188 16.7383C114.516 17.2148 114.68 17.793 114.68 18.4727C114.68 19.0273 114.562 19.5352 114.328 19.9961C114.102 20.457 113.77 20.8555 113.332 21.1914C112.902 21.5195 112.387 21.7773 111.785 21.9648C111.191 22.1445 110.523 22.2344 109.781 22.2344C108.664 22.2344 107.719 22.0352 106.945 21.6367C106.172 21.2383 105.586 20.7227 105.188 20.0898C104.789 19.457 104.59 18.7891 104.59 18.0859H106.77C106.801 18.6797 106.973 19.1523 107.285 19.5039C107.598 19.8477 107.98 20.0938 108.434 20.2422C108.887 20.3828 109.336 20.4531 109.781 20.4531C110.375 20.4531 110.871 20.375 111.27 20.2188C111.676 20.0625 111.984 19.8477 112.195 19.5742C112.406 19.3008 112.512 18.9883 112.512 18.6367ZM119.707 4V22H117.527V4H119.707ZM127.453 9.32031L121.922 15.2383L118.828 18.4492L118.652 16.1406L120.867 13.4922L124.805 9.32031H127.453ZM125.473 22L120.949 15.9531L122.074 14.0195L128.027 22H125.473Z" fill="white"/>
</svg>
